<svg width="207" height="207" viewBox="0 0 207 207" fill="none" xmlns="http://www.w3.org/2000/svg">
<circle cx="103.5" cy="103.5" r="103.5" fill="#189AB4"/>
<path d="M101.5 50C94.7369 50 88.0401 51.3838 81.7918 54.0724C75.5435 56.7611 69.8662 60.7019 65.084 65.6698C55.4259 75.703 50 89.3109 50 103.5C50 117.689 55.4259 131.297 65.084 141.33C69.8662 146.298 75.5435 150.239 81.7918 152.928C88.0401 155.616 94.7369 157 101.5 157C115.159 157 128.258 151.363 137.916 141.33C147.574 131.297 153 117.689 153 103.5C153 97.294 151.918 91.1415 149.858 85.3635L141.619 93.9235C142.34 97.08 142.7 100.29 142.7 103.5C142.7 114.851 138.359 125.738 130.633 133.764C122.906 141.791 112.427 146.3 101.5 146.3C90.5731 146.3 80.0937 141.791 72.3672 133.764C64.6407 125.738 60.3 114.851 60.3 103.5C60.3 92.1487 64.6407 81.2624 72.3672 73.2358C80.0937 65.2093 90.5731 60.7 101.5 60.7C104.59 60.7 107.68 61.0745 110.719 61.8235L119.01 53.21C113.396 51.1235 107.474 50 101.5 50ZM137.55 50L116.95 71.4V79.425L103.818 93.0675C103.045 92.8 102.273 92.8 101.5 92.8C98.7683 92.8 96.1484 93.9273 94.2168 95.934C92.2852 97.9406 91.2 100.662 91.2 103.5C91.2 106.338 92.2852 109.059 94.2168 111.066C96.1484 113.073 98.7683 114.2 101.5 114.2C104.232 114.2 106.852 113.073 108.783 111.066C110.715 109.059 111.8 106.338 111.8 103.5C111.8 102.697 111.8 101.895 111.543 101.093L124.675 87.45H132.4L153 66.05H137.55V50ZM101.5 71.4C93.3048 71.4 85.4453 74.782 79.6504 80.8019C73.8555 86.8218 70.6 94.9865 70.6 103.5C70.6 112.013 73.8555 120.178 79.6504 126.198C85.4453 132.218 93.3048 135.6 101.5 135.6C109.695 135.6 117.555 132.218 123.35 126.198C129.144 120.178 132.4 112.013 132.4 103.5H122.1C122.1 109.176 119.93 114.619 116.066 118.632C112.203 122.645 106.963 124.9 101.5 124.9C96.0365 124.9 90.7968 122.645 86.9336 118.632C83.0704 114.619 80.9 109.176 80.9 103.5C80.9 97.8244 83.0704 92.3812 86.9336 88.3679C90.7968 84.3546 96.0365 82.1 101.5 82.1V71.4Z" fill="white"/>
</svg>
