<svg width="207" height="207" viewBox="0 0 207 207" fill="none" xmlns="http://www.w3.org/2000/svg">
<circle cx="103.5" cy="103.5" r="101" stroke="#189AB4" stroke-width="5"/>
<path d="M105.86 51.9324C106.215 51.6796 106.531 51.3815 106.798 51.0468H123.15C124.383 50.9844 125.619 50.9844 126.852 51.0468H127.094C130.727 51.0372 134.317 51.7896 137.6 53.2487C143.597 55.4541 148.784 59.2405 152.534 64.1505C155.373 67.8684 157.305 72.1264 158.191 76.6225C159.078 81.1186 158.899 85.7425 157.666 90.1663L136.725 70.798C135.829 69.9694 134.621 69.505 133.362 69.5056H102.886C101.908 69.5429 100.966 69.8603 100.186 70.4151L88.1618 78.9594C87.5156 79.4206 86.7788 79.758 85.9935 79.9523C85.2082 80.1466 84.3898 80.194 83.585 80.0918C82.7801 79.9896 82.0047 79.7397 81.3028 79.3565C80.601 78.9733 79.9866 78.4643 79.4946 77.8584C79.0055 77.2621 78.6473 76.5809 78.4405 75.8541C78.2338 75.1273 78.1826 74.3693 78.29 73.6239C78.3974 72.8784 78.6613 72.1603 79.0663 71.511C79.4713 70.8617 80.0095 70.294 80.6498 69.8407L105.86 51.9324ZM74.3568 118.192L74.2674 118.27L68.051 124.062L67.968 124.134C66.8794 125.104 65.4306 125.64 63.9284 125.626C62.4263 125.613 60.9886 125.052 59.9199 124.062C59.3859 123.566 58.9621 122.976 58.6729 122.325C58.3836 121.674 58.2347 120.977 58.2347 120.272C58.2347 119.567 58.3836 118.869 58.6729 118.218C58.9621 117.568 59.3859 116.977 59.9199 116.481L66.1363 110.689C67.219 109.684 68.6812 109.12 70.205 109.12C71.7288 109.12 73.1911 109.684 74.2738 110.689C75.3381 111.678 75.9436 113.02 75.9591 114.425C75.9747 115.83 75.3989 117.183 74.3568 118.192ZM72.4995 128.352C71.4573 129.362 70.8816 130.715 70.8971 132.12C70.9127 133.524 71.5182 134.867 72.5825 135.855C74.8291 137.95 78.4734 137.95 80.72 135.855L86.9364 130.064C87.539 129.503 88.0004 128.824 88.2868 128.075C88.5732 127.326 88.6774 126.527 88.5917 125.735C88.5061 124.944 88.2328 124.18 87.7917 123.5C87.3507 122.821 86.7532 122.242 86.0429 121.806C84.9524 121.134 83.6513 120.827 82.3511 120.935C81.0509 121.044 79.8282 121.562 78.8819 122.405L78.7989 122.489L72.5825 128.275L72.4995 128.352ZM59.0455 101.271C59.5794 101.768 60.0033 102.358 60.2925 103.009C60.5817 103.659 60.7306 104.357 60.7306 105.062C60.7306 105.767 60.5817 106.465 60.2925 107.115C60.0033 107.766 59.5794 108.356 59.0455 108.852L52.8291 114.644C51.746 115.651 50.2825 116.216 48.7571 116.216C47.2317 116.216 45.7682 115.651 44.6852 114.644C44.1512 114.148 43.7274 113.558 43.4381 112.907C43.1489 112.257 43 111.559 43 110.854C43 110.149 43.1489 109.451 43.4381 108.801C43.7274 108.15 44.1512 107.56 44.6852 107.063L50.908 101.271C51.9907 100.266 53.4529 99.7024 54.9767 99.7024C56.5005 99.7024 57.9627 100.266 59.0455 101.271ZM99.5926 134.282C100.127 134.778 100.55 135.368 100.84 136.019C101.129 136.67 101.278 137.368 101.278 138.072C101.278 138.777 101.129 139.475 100.84 140.126C100.55 140.776 100.127 141.367 99.5926 141.863L93.3762 147.655C92.2935 148.66 90.8313 149.224 89.3075 149.224C87.7837 149.224 86.3214 148.66 85.2387 147.655C84.3909 146.867 83.8288 145.849 83.6318 144.745C83.4348 143.641 83.6129 142.508 84.1409 141.504L84.1473 141.492C84.4257 140.966 84.7944 140.487 85.2387 140.074L91.4551 134.282C92.5379 133.277 94.0001 132.713 95.5239 132.713C97.0477 132.713 98.5099 133.277 99.5926 134.282ZM58.0498 61.9187C62.2876 57.9717 67.4264 54.9787 73.0784 53.1659C78.7304 51.353 84.7478 50.7676 90.6765 51.4537L74.8737 62.6845C73.2277 63.852 71.8443 65.3132 70.8031 66.984C69.762 68.6548 69.0836 70.5021 68.8072 72.4197C68.5307 74.3373 68.6617 76.2871 69.1924 78.1571C69.7231 80.027 70.6432 81.7801 71.8996 83.3153C74.4363 86.4151 78.1777 88.4485 82.3076 88.972C86.4375 89.4955 90.6206 88.4665 93.9442 86.1095L104.692 78.4807H131.402L153.785 99.1832C153.857 99.2669 153.934 99.3468 154.015 99.4226L161.355 106.303C163.006 107.873 163.952 109.976 163.998 112.18C164.044 114.384 163.187 116.521 161.603 118.15C160.02 119.779 157.829 120.776 155.484 120.937C153.139 121.097 150.818 120.408 148.999 119.012L148.386 118.438C148.267 118.325 148.139 118.221 148.003 118.127L141.027 111.593C140.733 111.307 140.38 111.079 139.991 110.922C139.602 110.766 139.183 110.683 138.759 110.68C138.336 110.676 137.915 110.752 137.523 110.902C137.131 111.053 136.775 111.275 136.475 111.556C136.175 111.837 135.938 112.171 135.778 112.538C135.618 112.906 135.537 113.3 135.541 113.697C135.544 114.094 135.632 114.487 135.799 114.852C135.967 115.217 136.21 115.547 136.515 115.823L143.854 122.704C144.122 122.949 144.39 123.189 144.671 123.416L144.952 123.679C145.567 124.243 146.056 124.916 146.391 125.658C146.727 126.4 146.902 127.198 146.907 128.004C146.911 128.81 146.745 129.609 146.418 130.355C146.091 131.1 145.61 131.778 145.002 132.348C144.394 132.918 143.671 133.369 142.876 133.676C142.08 133.983 141.228 134.138 140.368 134.134C139.508 134.129 138.658 133.965 137.866 133.651C137.074 133.336 136.357 132.878 135.755 132.301L134.67 131.29C134.22 130.869 133.646 130.584 133.022 130.471C132.398 130.358 131.752 130.422 131.167 130.656C130.582 130.889 130.085 131.281 129.739 131.781C129.393 132.281 129.215 132.866 129.226 133.462C129.216 133.867 129.294 134.269 129.455 134.645C129.617 135.02 129.858 135.361 130.164 135.646L131.587 136.98C132.174 137.498 132.644 138.121 132.969 138.812C133.294 139.503 133.467 140.248 133.479 141.003C133.492 141.759 133.342 142.508 133.039 143.208C132.736 143.908 132.287 144.544 131.717 145.078C131.148 145.612 130.469 146.033 129.723 146.317C128.976 146.601 128.177 146.741 127.371 146.73C126.566 146.719 125.771 146.556 125.034 146.251C124.296 145.946 123.632 145.506 123.08 144.956H123.073L122.997 144.878L121.656 143.622C121.361 143.342 121.01 143.12 120.623 142.968C120.236 142.817 119.82 142.738 119.4 142.738C118.981 142.738 118.565 142.817 118.178 142.968C117.79 143.12 117.439 143.342 117.144 143.622C116.546 144.183 116.21 144.944 116.21 145.737C116.21 146.53 116.546 147.291 117.144 147.852L118.535 149.163C119.108 149.693 119.564 150.324 119.877 151.019C120.19 151.715 120.353 152.461 120.358 153.216C120.363 153.971 120.21 154.719 119.906 155.419C119.603 156.118 119.155 156.754 118.59 157.291C118.024 157.828 117.351 158.255 116.609 158.549C115.867 158.842 115.071 158.995 114.266 159C113.461 159.005 112.662 158.861 111.917 158.576C111.171 158.292 110.492 157.872 109.919 157.342L100.786 149.204L104.137 146.081C105.266 145.033 106.162 143.786 106.773 142.411C107.384 141.036 107.699 139.562 107.699 138.072C107.699 136.583 107.384 135.108 106.773 133.734C106.162 132.359 105.266 131.112 104.137 130.064C102.943 128.952 101.516 128.084 99.946 127.516C98.3762 126.947 96.6977 126.69 95.0165 126.761C95.0905 125.191 94.813 123.624 94.2018 122.16C93.5906 120.697 92.6593 119.37 91.4679 118.264C90.2748 117.153 88.8489 116.286 87.2802 115.717C85.7115 115.149 84.034 114.891 82.3539 114.961C82.4274 113.392 82.1496 111.826 81.5385 110.364C80.9273 108.902 79.9962 107.576 78.8053 106.471C77.2882 105.061 75.4028 104.048 73.3375 103.535C71.2723 103.021 69.0995 103.025 67.0362 103.545C66.6815 101.083 65.4674 98.8003 63.5833 97.0532C61.4837 95.1021 58.7005 93.931 55.75 93.7572C52.7995 93.5834 49.8818 94.4185 47.5381 96.1078C46.0307 90.0417 46.2054 83.7149 48.0455 77.7301C49.8856 71.7453 53.3297 66.3019 58.0498 61.9187Z" fill="#189AB4"/>
</svg>
