<svg width="101" height="101" viewBox="0 0 101 101" fill="none" xmlns="http://www.w3.org/2000/svg">
<g clip-path="url(#clip0_634_845)">
<path d="M77.6016 43.7946L50.5 16.8333L23.3983 43.7946C23.0786 44.0381 22.8148 44.3475 22.625 44.7018C22.4352 45.056 22.3238 45.447 22.2982 45.8481C22.2726 46.2492 22.3335 46.6511 22.4767 47.0266C22.62 47.4021 22.8422 47.7425 23.1284 48.0246C23.4146 48.3068 23.7582 48.5242 24.1357 48.662C24.5132 48.7999 24.916 48.855 25.3167 48.8237C25.7173 48.7924 26.1066 48.6754 26.4582 48.4805C26.8097 48.2857 27.1152 48.0176 27.3541 47.6944L47.6944 27.5224V81.1927C47.6944 81.9368 47.99 82.6504 48.5162 83.1765C49.0423 83.7027 49.7559 83.9983 50.5 83.9983C51.2441 83.9983 51.9577 83.7027 52.4838 83.1765C53.01 82.6504 53.3055 81.9368 53.3055 81.1927V27.5224L73.6458 47.6944C74.1741 48.2189 74.8892 48.5122 75.6337 48.5095C76.3781 48.5069 77.0911 48.2086 77.6157 47.6803C78.1403 47.152 78.4335 46.437 78.4309 45.6925C78.4282 44.948 78.1299 44.2351 77.6016 43.7105V43.7946Z" fill="black"/>
</g>
<defs>
<clipPath id="clip0_634_845">
<rect width="101" height="101" fill="white"/>
</clipPath>
</defs>
</svg>
